<svg width="6324" height="1755" xmlns="http://www.w3.org/2000/svg" xmlns:xlink="http://www.w3.org/1999/xlink" xml:space="preserve" overflow="hidden"><defs><clipPath id="clip0"><rect x="1664" y="231" width="6324" height="1755"/></clipPath><clipPath id="clip1"><rect x="1715" y="282" width="6223" height="1655"/></clipPath><clipPath id="clip2"><rect x="1715" y="282" width="6223" height="1655"/></clipPath><clipPath id="clip3"><rect x="1715" y="282" width="6223" height="1655"/></clipPath><clipPath id="clip4"><rect x="1715" y="282" width="6223" height="1655"/></clipPath><clipPath id="clip5"><rect x="1715" y="282" width="6223" height="1655"/></clipPath><clipPath id="clip6"><rect x="1715" y="282" width="6223" height="1655"/></clipPath><clipPath id="clip7"><rect x="1715" y="282" width="6223" height="1655"/></clipPath><clipPath id="clip8"><rect x="1715" y="282" width="6223" height="1655"/></clipPath><clipPath id="clip9"><rect x="1715" y="282" width="6223" height="1655"/></clipPath><clipPath id="clip10"><rect x="1715" y="282" width="6223" height="1655"/></clipPath></defs><g clip-path="url(#clip0)" transform="translate(-1664 -231)"><rect x="1665" y="232" width="6321" height="1752" fill="#FFFFFF" fill-opacity="0.698039"/><g clip-path="url(#clip1)"><path d="M1879.56 1386.55 1880.56 1378.55 1883.56 1370.55 1890.56 1358.54 1902.56 1345.54 1919.56 1331.54 1940.56 1317.54 1946.56 1313.54 1952.56 1309.54 1958.56 1306.54 1964.56 1300.54 1970.56 1294.54 1975.56 1288.54 1981.57 1282.54 1987.57 1276.54 1993.57 1270.54 2004.57 1260.54 2014.57 1252.54 2024.57 1246.54 2036.57 1239.54 2050.57 1231.54 2061.57 1226.54 2073.57 1220.54 2092.57 1212.54 2107.57 1207.54 2121.57 1202.54 2135.57 1197.54 2152.57 1192.54 2167.57 1187.54 2187.57 1182.54 2206.57 1176.54 2226.57 1171.54 2245.57 1166.54 2265.57 1162.54 2306.58 1153.54 2350.58 1144.54 2394.58 1137.54 2431.58 1132.54 2468.58 1127.54 2506.58 1124.54 2543.58 1121.54 2580.58 1120.54 2618.59 1120.5 2879.59 1120.5 2879.59 1568.5 2543.58 1568.5 2506.58 1567.55 2468.58 1567.55 2431.58 1565.55 2394.58 1563.55 2354.58 1560.55 2328.58 1557.55 2306.58 1555.55 2306.58 1548.55 2284.58 1545.55 2265.57 1542.55 2245.57 1539.55 2226.57 1535.55 2206.57 1531.55 2187.57 1527.55 2167.57 1522.55 2152.57 1518.55 2135.57 1514.55 2121.57 1510.55 2107.57 1506.55 2092.57 1501.55 2078.57 1497.55 2064.57 1492.55 2050.57 1487.55 2035.57 1481.55 2035.57 1492.55 2021.57 1487.55 1979.57 1469.55 1970.56 1465.55 1959.56 1460.55 1950.56 1455.55 1919.56 1439.55 1901.56 1426.55 1889.56 1413.55 1882.56 1402.55 1880.56 1393.55 1879.5 1386.55M2879.59 1120.5 4002.63 1120.5 4002.63 1389.55 3994.63 1568.5 2879.59 1568.5 2879.59 1120.5M4002.63 1120.5 4711.65 1120.5 4711.65 1568.5 3994.63 1568.5 4002.63 1389.55 4002.63 1120.5M4711.65 1120.5 5829.69 1120.5 5829.69 1568.5 4711.65 1568.5 4711.65 1120.5M5829.69 1120.5 5866.69 1120.5 5903.69 1120.54 5941.7 1120.54 5978.7 1120.54 6015.7 1120.54 6053.7 1121.54 6093.7 1121.54 6133.7 1122.54 6173.7 1123.54 6213.7 1124.54 6246.71 1126.54 6282.71 1128.54 6319.71 1130.54 6357.71 1132.54 6394.71 1134.54 6394.71 1478.55 6357.71 1486.55 6319.71 1493.55 6282.71 1501.55 6246.71 1508.55 6213.7 1515.55 6173.7 1523.55 6133.7 1531.55 6093.7 1538.55 6053.7 1546.55 6015.7 1553.55 5978.7 1558.55 5941.7 1563.55 5903.69 1566.55 5866.69 1567.55 5829.69 1568.5 5829.69 1120.5M6394.71 1134.54 6394.71 1139.54 6437.71 1141.54 6458.71 1142.54 6473.71 1143.54 6484.71 1144.54 6495.71 1145.54 6509.71 1147.54 6523.71 1148.54 6565.72 1152.54 6579.72 1153.54 6593.72 1155.54 6609.72 1156.54 6649.72 1161.54 6694.72 1165.54 6740.72 1169.54 6785.72 1174.54 6821.72 1177.54 6860.73 1182.54 6879.73 1184.54 6911.73 1187.54 6943.73 1191.54 6975.73 1194.54 7007.73 1198.54 7030.73 1200.54 7041.73 1201.54 7051.73 1202.54 7062.73 1204.54 7075.73 1205.54 7087.73 1206.54 7100.73 1208.54 7114.5 1209.54 7114.5 1307.54 7100.73 1310.54 7087.73 1313.54 7075.73 1316.54 7062.73 1319.54 7051.73 1322.54 7041.73 1325.54 7030.73 1327.54 6860.73 1368.55 6821.72 1378.55 6785.72 1387.55 6740.72 1398.55 6694.72 1408.55 6649.72 1419.55 6609.72 1429.55 6588.72 1434.55 6571.72 1438.55 6565.72 1439.55 6523.71 1449.55 6473.71 1460.55 6437.71 1469.55 6394.71 1474.55 6394.71 1478.55 6394.71 1134.54M1964.56 1300.54 1970.56 1294.54 1975.56 1288.54 1981.57 1282.54 1987.57 1276.54 1993.57 1270.54 1998.57 1269.54 2003.57 1269.54 2008.57 1268.54 2013.57 1267.54 2017.57 1267.54 2021.57 1266.54 2026.57 1266.54 2030.57 1265.54 2036.57 1265.54 2041.57 1264.54 2047.57 1264.54 2052.57 1264.54 2058.57 1264.54 2063.57 1265.54 2068.57 1265.54 2073.57 1265.54 2077.57 1266.54 2083.57 1267.54 2088.57 1267.54 2092.57 1268.54 2092.57 1275.54 2092.57 1282.54 2092.57 1289.54 2092.57 1296.54 2092.57 1303.54 2092.57 1310.54 2085.57 1311.54 2078.57 1312.54 2071.57 1314.54 2064.57 1315.54 2054.57 1317.54 2046.57 1319.54 2035.57 1315.54 2028.57 1312.54 2021.57 1310.54 2014.57 1308.54 2007.57 1306.54 2002.57 1306.54 1998.57 1306.54 1995.57 1306.54 1988.57 1306.54 1982.57 1306.54 1977.57 1306.54 1970.56 1306.54 1964.56 1306.54 1958.56 1306.54 1964.56 1300.54M2314.58 1245.54 2324.58 1236.54 2378.58 1236.54 2388.58 1245.54 2388.58 1373.55 2378.58 1383.55 2324.58 1383.55 2314.58 1373.55 2314.58 1245.54M3484.61 1245.54 3495.61 1236.54 3548.62 1236.54 3559.62 1245.54 3559.62 1373.55 3548.62 1383.55 3495.61 1383.55 3484.61 1373.55 3484.61 1245.54M4831.66 1245.54 4842.66 1236.54 4895.66 1236.54 4906.66 1245.54 4906.66 1373.55 4895.66 1383.55 4842.66 1383.55 4831.66 1373.55 4831.66 1245.54M6166.7 1245.54 6176.7 1236.54 6230.7 1236.54 6240.7 1245.54 6240.7 1373.55 6230.7 1383.55 6176.7 1383.55 6166.7 1373.55 6166.7 1245.54" stroke="#5B9BD5" stroke-width="6.875" stroke-linecap="round" stroke-linejoin="round" stroke-miterlimit="10" fill="none"/></g><g clip-path="url(#clip2)"><path d="M1940.5 1317.54 1950.56 1338.54 1950.56 1455.55M3657.62 1469.55 3667.62 1451.55 3684.62 1436.55 3704.62 1425.55 3739.62 1408.55 3778.62 1396.55 3832.63 1383.55 3890.63 1374.55 3928.63 1367.55 3964.63 1357.54 3987.63 1349.54 4002.63 1349.54 4711.65 1357.54 4732.66 1358.54 4758.66 1363.54 4786.66 1372.55 4821.66 1383.55 4851.66 1393.55 4883.66 1403.55 4910.66 1412.55 4943.66 1422.55 4970.66 1432.55 5008.66 1448.55 5045.67 1470.55 5076.67 1492.55 5098.67 1511.55 5105.67 1526.55 5106.67 1534.55 5100.67 1543.55 5090.67 1550.55 5076.67 1556.55 5055.67 1561.55 5027.67 1567.55 4995.66 1571.55 4971.66 1575.55 4939.66 1578.55 4911.66 1581.55 4877.66 1584.55 4832.66 1586.55 4785.66 1586.5 3964.63 1586.5 3899.63 1586.5 3854.63 1585.55 3822.63 1582.55 3795.62 1578.55 3774.62 1573.55 3746.62 1565.55 3716.62 1556.55 3690.62 1544.55 3676.62 1533.55 3662.62 1520.55 3654.62 1505.55 3652.62 1494.55 3654.62 1482.55 3657.62 1469.55M2035.57 1492.55 2035.57 1412.55 2152.57 1417.55 2152.57 1412.55 2306.58 1417.55 2306.58 1545.55M2610.59 1403.55 2619.59 1392.55 2790.59 1392.55 2799.59 1403.55 2799.59 1529.55 2790.59 1535.55 2619.59 1535.55 2610.59 1529.55 2610.59 1403.55M4375.64 1120.5 4375.64 1568.55M5561.68 1403.55 5572.68 1392.55 5675.69 1392.55 5686.69 1403.55 5686.69 1529.55 5675.69 1535.55 5572.68 1535.55 5561.68 1529.55 5561.68 1403.55M5560.68 1403.55 5571.68 1392.55 5738.69 1392.55 5749.69 1403.55 5749.69 1529.55 5738.69 1535.55 5571.68 1535.55 5560.68 1529.55 5560.68 1403.55M5919.69 1441.55 5930.69 1431.55 5973.7 1429.55 5983.7 1439.55 5983.7 1509.55 5973.7 1517.55 5930.69 1522.55 5919.69 1517.55 5919.69 1441.55M6408.71 1148.54 6420.71 1159.54 6440.71 1179.54 6456.71 1203.54 6468.71 1228.54 6477.71 1255.54 6483.71 1289.54 6485.71 1306.54 6483.71 1323.54 6477.71 1357.54 6468.71 1384.55 6456.71 1409.55 6440.71 1433.55 6420.71 1453.55 6408.71 1464.55M6609.72 1239.54 6785.5 1244.54 6785.5 1317.54 6609.72 1360.54 6609.72 1239.54M5353.68 1245.54 5363.68 1236.54 5399.68 1236.54 5409.68 1245.54 5409.68 1373.55 5399.68 1383.55 5363.68 1383.55 5353.68 1373.55 5353.68 1245.54" stroke="#ED7D31" stroke-width="6.875" stroke-linecap="round" stroke-linejoin="round" stroke-miterlimit="10" fill="none"/></g><g clip-path="url(#clip3)"><path d="M3779.62 1416.55 3795.62 1410.55 3819.63 1404.55 3857.63 1397.55 3871.63 1395.55 3914.63 1386.55 3993.63 1368.55 4064.63 1352.54 4173.64 1329.54 4331.64 1299.54 4483.65 1273.54 4630.65 1249.54 4780.66 1223.54 4938.66 1198.54 5099.67 1174.54 5113.67 1172.54 5149.67 1168.54 5323.67 1155.54 5439.68 1150.5 5469.5 1152.54 5405.68 1162.54 5335.68 1177.54 5280.67 1189.54 5280.67 1196.54 5258.67 1194.54 5176.67 1215.54 5123.67 1230.54 5094.67 1239.54 5154.67 1256.54 5155.67 1260.54 5104.67 1267.54 5050.67 1271.54 5080.67 1282.54 5080.67 1285.54 5045.67 1293.54 4989.66 1298.54 5006.66 1304.54 5007.66 1308.54 4966.66 1318.54 4913.66 1326.54 4933.66 1332.54 4933.66 1336.54 4891.66 1346.54 4831.66 1354.54 4803.66 1357.54 4796.66 1367.55 4787.66 1394.55 4851.66 1406.55 4851.66 1413.55 4776.66 1431.55 4759.66 1487.55 4735.66 1488.55 4687.65 1493.55 4630.65 1501.55 4565.65 1513.55 4522.65 1521.55 4494.65 1525.55 4466.65 1527.55 4407.65 1535.5 4367.64 1534.55 4299.64 1533.55 4257.64 1533.55 4202.64 1532.55 4148.64 1531.55 4107.63 1528.55 4041.63 1522.55 3999.63 1517.55 4000.63 1503.55 3966.63 1498.55 3937.63 1492.55 3911.63 1486.55 3886.63 1479.55 3857.63 1472.55 3821.63 1464.55 3797.62 1459.55 3780.62 1454.55 3777.5 1435.55 3779.62 1416.55" stroke="#A5A5A5" stroke-width="6.875" stroke-linecap="round" stroke-linejoin="round" stroke-miterlimit="10" fill="none"/></g><g clip-path="url(#clip4)"><path d="M3696.62 1391.55 3698.62 1385.55 3706.62 1378.55 3731.62 1368.55 3748.62 1364.55 3767.62 1360.54 3783.62 1358.54 3807.62 1355.54 3824.63 1354.54 3854.63 1351.54 3868.63 1350.54 3894.63 1349.54 3923.63 1349.5 3945.63 1350.54 3946.63 1360.54 3977.63 1366.55 4012.63 1370.55 4047.63 1374.55 4073.63 1379.55 4099.63 1385.55 4122.64 1393.55 4148.64 1404.55 4181.64 1421.55 4180.64 1425.55 4190.64 1432.55 4199.64 1441.55 4199.64 1469.55 4207.64 1470.55 4221.64 1474.55 4221.64 1489.55 4328.64 1534.55 4331.5 1535.55 4331.64 1542.55 4327.64 1544.55 4218.64 1580.55 4217.64 1596.55 4205.64 1599.55 4195.64 1599.55 4194.64 1602.55 4154.64 1612.55 4152.64 1643.55 4184.64 1643.55 4186.64 1647.55 4166.64 1654.55 4143.64 1663.55 4120.64 1669.56 4097.63 1675.56 4077.63 1678.56 4052.63 1681.56 4029.63 1682.56 4007.63 1684.56 3988.63 1684.5 3967.63 1684.5 3940.63 1683.56 3898.63 1682.56 3863.63 1683.56 3823.63 1682.56 3789.62 1681.56 3772.62 1679.56 3750.62 1675.56 3728.62 1669.56 3715.62 1664.55 3708.62 1660.55 3705.62 1657.55 3703.62 1653.55 3701.62 1617.55 3699.62 1567.55 3698.62 1509.55 3696.62 1457.55 3696.5 1406.55 3696.62 1391.55" stroke="#FFC000" stroke-width="6.875" stroke-linecap="round" stroke-linejoin="round" stroke-miterlimit="10" fill="none"/></g><g clip-path="url(#clip5)"><path d="M3924.63 1358.54 3944.63 1358.54 3945.63 1349.5 3993.63 1351.54 4029.63 1353.54 4071.63 1358.54 4109.63 1362.54 4114.64 1358.54 4145.64 1351.54 4158.64 1350.54 4175.64 1352.54 4202.64 1358.54 4225.64 1363.54 4247.64 1368.55 4289.64 1375.55 4325.64 1380.55 4369.64 1385.55 4404.64 1387.55 4433.65 1388.55 4467.65 1388.55 4501.65 1388.55 4542.65 1387.55 4573.65 1385.55 4603.65 1382.55 4628.65 1380.55 4652.5 1379.55 4640.65 1383.55 4621.65 1390.55 4600.65 1396.55 4575.65 1402.55 4548.65 1409.55 4518.65 1416.55 4486.65 1424.55 4459.65 1432.55 4433.65 1443.55 4407.64 1456.55 4378.64 1480.55 4360.64 1503.55 4340.64 1505.5 4312.64 1504.55 4284.64 1502.55 4262.64 1498.55 4236.64 1492.55 4220.64 1487.55 4201.64 1481.55 4199.64 1472.55 4200.64 1454.55 4191.64 1443.55 4190.64 1444.55 4164.64 1438.55 4136.64 1432.55 4105.63 1425.55 4076.63 1418.55 4041.63 1415.55 4011.63 1412.55 3974.63 1405.55 3956.63 1405.55 3945.63 1402.55 3944.63 1387.55 3923.63 1380.55 3922.5 1373.55 3924.63 1358.54" stroke="#4472C4" stroke-width="6.875" stroke-linecap="round" stroke-linejoin="round" stroke-miterlimit="10" fill="none"/></g><g clip-path="url(#clip6)"><path d="M6481.5 1268.54 6483.71 1265.54 6491.71 1262.54 6501.71 1261.54 6525.71 1261.54 6557.72 1261.54 6591.72 1262.54 6616.72 1257.54 6659.72 1248.54 6706.72 1240.54 6755.72 1231.54 6818.72 1221.54 6886.73 1211.54 6942.73 1203.54 6994.73 1195.54 7046.73 1188.54 7092.73 1181.54 7108.73 1180.54 7133.73 1179.54 7161.74 1178.5 7200.74 1179.54 7247.5 1180.54 7209.74 1191.54 7188.74 1197.54 7155.73 1209.54 7116.73 1222.54 7080.73 1234.54 7034.73 1248.54 6990.73 1259.54 6957.73 1266.54 6919.73 1272.54 6749.72 1299.54 6714.72 1303.54 6675.72 1307.54 6640.72 1309.54 6618.72 1309.5 6592.72 1309.54 6573.72 1307.54 6552.72 1303.54 6528.71 1295.54 6507.71 1287.54 6492.71 1280.54 6484.71 1274.54 6481.5 1268.54" stroke="#70AD47" stroke-width="6.875" stroke-linecap="round" stroke-linejoin="round" stroke-miterlimit="10" fill="none"/></g><g clip-path="url(#clip7)"><path d="M6150.5 1121.54 6176.7 1118.54 6216.7 1109.54 6244.71 1101.54 6274.71 1088.54 6299.71 1075.54 6324.71 1059.53 6347.71 1040.53 6376.71 1011.53 6438.71 946.531 6527.71 853.528 6603.72 774.526 6690.72 683.523 6798.72 570.519 6876.73 489.516 6930.73 433.514 6949.73 413.514 6959.73 405.513 6978.73 396.513 6998.73 389.513 7021.73 383.513 7043.73 379.513 7081.73 374.512 7081.73 390.513 7108.73 390.513 6684.72 1140.54 6671.72 1162.54 6464.71 1143.54 6390.71 1135.54 6324.71 1130.54 6268.71 1127.54 6217.7 1123.54 6175.7 1122.54 6150.5 1121.54M7081.73 374.512 7114.73 370.512 7160.74 367.512 7193.5 365.5 7183.74 388.513 7163.74 434.514 7139.73 492.516 6928.73 1051.53 6909.73 1104.54 6898.73 1126.54 6885.73 1142.54 6854.73 1169.54 6846.73 1172.5 6834.72 1172.54 6720.72 1160.54 6684.72 1140.54 7108.73 390.513 7081.73 390.513 7081.73 374.512" stroke="#255E91" stroke-width="6.875" stroke-linecap="round" stroke-linejoin="round" stroke-miterlimit="10" fill="none"/></g><g clip-path="url(#clip8)"><path d="M2293.58 1550.55 2276.57 1550.55 2276.57 1587.55 2269.57 1587.55 2246.57 1545.55 2234.5 1543.5 2260.57 1594.55 2273.57 1606.55 2273.57 1611.55 2244.57 1611.55 2237.57 1617.55 2237.57 1633.55 2254.57 1637.55 2273.57 1637.55 2277.57 1641.55 2277.57 1653.55 2291.58 1649.55 2291.58 1641.55 2295.58 1636.55 2295.58 1633.55 2315.58 1633.55 2299.58 1651.55 2305.58 1653.55 2324.58 1627.55 2295.58 1625.55 2293.58 1617.55 2293.58 1550.55M2291.58 1649.55 2312.58 1655.55 2326.58 1670.55 2332.5 1691.56 2326.58 1712.56 2312.58 1727.56 2291.58 1733.5 2271.57 1727.56 2256.57 1712.56 2251.57 1691.56 2256.57 1670.55 2271.57 1655.55 2291.58 1649.55" stroke="#9E480E" stroke-width="6.875" stroke-linecap="round" stroke-linejoin="round" stroke-miterlimit="10" fill="none"/></g><g clip-path="url(#clip9)"><path d="M4604.65 1488.55 4586.65 1545.55 4581.65 1554.55 4560.65 1610.55 4553.65 1614.55 4557.65 1643.55 4610.65 1653.55 4608.65 1659.55 4580.65 1677.56 4573.65 1671.56 4595.65 1659.55 4560.65 1660.55 4561.65 1667.55 4550.65 1664.55 4529.65 1670.56 4527.65 1648.55 4515.65 1641.55 4515.65 1621.55 4457.65 1559.55 4410.65 1506.55 4427.65 1503.55 4466.65 1541.55 4511.65 1505.55 4509.65 1474.5 4534.65 1474.5 4541.65 1534.55 4565.65 1537.55 4586.65 1488.55 4604.65 1488.55M4549.65 1592.55 4562.65 1552.55 4550.65 1542.55 4543.65 1542.55 4549.65 1592.55M4513.65 1514.55 4471.65 1549.55 4523.65 1606.55 4513.65 1514.55M4594.65 1700.56 4610.65 1700.56M4609.65 1725.56 4594.65 1725.56M4505.65 1724.56 4493.65 1724.56M4491.65 1693.56 4509.65 1688.56M4492.65 1699.56 4507.65 1695.56M4493.65 1703.56 4505.65 1702.56M4449.65 1665.55 4472.65 1671.56 4490.65 1689.56 4496.65 1713.56 4490.65 1738.56 4472.65 1755.56 4449.65 1762.5 4425.65 1755.56 4408.65 1738.56 4402.5 1713.56 4408.65 1689.56 4425.65 1671.56 4449.65 1665.55M4550.65 1664.55 4573.65 1671.56 4590.65 1688.56 4597.65 1713.56 4590.65 1737.56 4573.65 1755.56 4550.65 1761.56 4526.65 1755.56 4509.65 1737.56 4503.65 1713.56 4509.65 1688.56 4526.65 1671.56 4550.65 1664.55M4654.65 1665.55 4677.65 1671.56 4694.65 1689.56 4701.5 1713.56 4694.65 1738.56 4677.65 1755.56 4654.65 1762.5 4630.65 1755.56 4613.65 1738.56 4607.65 1713.56 4613.65 1689.56 4630.65 1671.56 4654.65 1665.55" stroke="#636363" stroke-width="6.875" stroke-linecap="round" stroke-linejoin="round" stroke-miterlimit="10" fill="none"/></g><g clip-path="url(#clip10)"><path d="M2439.5 1308.54 2440.58 1298.54 2445.58 1293.54 2450.58 1292.5 2454.58 1293.54 2459.58 1298.54 2461.58 1308.54 2459.58 1318.54 2454.58 1322.54 2450.58 1324.5 2445.58 1322.54 2440.58 1318.54 2439.5 1308.54M2476.58 1308.54 2477.58 1298.54 2482.58 1293.54 2487.58 1292.5 2491.58 1293.54 2497.58 1298.54 2498.58 1308.54 2497.58 1318.54 2491.58 1322.54 2487.58 1324.5 2482.58 1322.54 2477.58 1318.54 2476.58 1308.54M2513.58 1308.54 2514.58 1298.54 2520.58 1293.54 2524.58 1292.5 2529.58 1293.54 2534.58 1298.54 2535.58 1308.54 2534.58 1318.54 2529.58 1322.54 2524.58 1324.5 2520.58 1322.54 2514.58 1318.54 2513.58 1308.54M2551.58 1308.54 2552.58 1298.54 2557.58 1293.54 2562.58 1292.5 2566.58 1293.54 2571.58 1298.54 2572.58 1308.54 2571.58 1318.54 2566.58 1322.54 2562.58 1324.5 2557.58 1322.54 2552.58 1318.54 2551.58 1308.54M2588.58 1308.54 2589.58 1298.54 2594.59 1293.54 2599.59 1292.5 2603.59 1293.54 2609.59 1298.54 2610.59 1308.54 2609.59 1318.54 2603.59 1322.54 2599.59 1324.5 2594.59 1322.54 2589.58 1318.54 2588.58 1308.54M2625.59 1308.54 2626.59 1298.54 2632.59 1293.54 2636.59 1292.5 2641.59 1293.54 2646.59 1298.54 2647.59 1308.54 2646.59 1318.54 2641.59 1322.54 2636.59 1324.5 2632.59 1322.54 2626.59 1318.54 2625.59 1308.54M2663.59 1308.54 2664.59 1298.54 2669.59 1293.54 2673.59 1292.5 2678.59 1293.54 2683.59 1298.54 2684.59 1308.54 2683.59 1318.54 2678.59 1322.54 2673.59 1324.5 2669.59 1322.54 2664.59 1318.54 2663.59 1308.54M2700.59 1308.54 2701.59 1298.54 2706.59 1293.54 2711.59 1292.5 2715.59 1293.54 2721.59 1298.54 2722.59 1308.54 2721.59 1318.54 2715.59 1322.54 2711.59 1324.5 2706.59 1322.54 2701.59 1318.54 2700.59 1308.54M2737.59 1308.54 2738.59 1298.54 2744.59 1293.54 2748.59 1292.5 2753.59 1293.54 2758.59 1298.54 2759.59 1308.54 2758.59 1318.54 2753.59 1322.54 2748.59 1324.5 2744.59 1322.54 2738.59 1318.54 2737.59 1308.54M2774.59 1308.54 2776.59 1298.54 2781.59 1293.54 2785.59 1292.5 2790.59 1293.54 2795.59 1298.54 2796.59 1308.54 2795.59 1318.54 2790.59 1322.54 2785.59 1324.5 2781.59 1322.54 2776.59 1318.54 2774.59 1308.54M2812.59 1308.54 2813.59 1298.54 2818.59 1293.54 2823.59 1292.5 2827.59 1293.54 2833.59 1298.54 2834.59 1308.54 2833.59 1318.54 2827.59 1322.54 2823.59 1324.5 2818.59 1322.54 2813.59 1318.54 2812.59 1308.54M2849.59 1308.54 2850.59 1298.54 2856.59 1293.54 2860.59 1292.5 2865.59 1293.54 2870.59 1298.54 2871.59 1308.54 2870.59 1318.54 2865.59 1322.54 2860.59 1324.5 2856.59 1322.54 2850.59 1318.54 2849.59 1308.54M2886.59 1308.54 2888.59 1298.54 2893.59 1293.54 2897.6 1292.5 2902.6 1293.54 2907.6 1298.54 2908.6 1308.54 2907.6 1318.54 2902.6 1322.54 2897.6 1324.5 2893.59 1322.54 2888.59 1318.54 2886.59 1308.54M2961.6 1308.54 2962.6 1298.54 2968.6 1293.54 2972.6 1292.5 2976.6 1293.54 2982.6 1298.54 2983.6 1308.54 2982.6 1318.54 2976.6 1322.54 2972.6 1324.5 2968.6 1322.54 2962.6 1318.54 2961.6 1308.54M2998.6 1308.54 3000.6 1298.54 3005.6 1293.54 3009.6 1292.5 3014.6 1293.54 3019.6 1298.54 3020.6 1308.54 3019.6 1318.54 3014.6 1322.54 3009.6 1324.5 3005.6 1322.54 3000.6 1318.54 2998.6 1308.54M3073.6 1308.54 3074.6 1298.54 3080.6 1293.54 3084.6 1292.5 3088.6 1293.54 3094.6 1298.54 3095.6 1308.54 3094.6 1318.54 3088.6 1322.54 3084.6 1324.5 3080.6 1322.54 3074.6 1318.54 3073.6 1308.54M3110.6 1308.54 3112.6 1298.54 3117.6 1293.54 3121.6 1292.5 3126.6 1293.54 3131.6 1298.54 3132.6 1308.54 3131.6 1318.54 3126.6 1322.54 3121.6 1324.5 3117.6 1322.54 3112.6 1318.54 3110.6 1308.54M3148.6 1308.54 3149.6 1298.54 3154.6 1293.54 3159.6 1292.5 3163.6 1293.54 3168.6 1298.54 3170.6 1308.54 3168.6 1318.54 3163.6 1322.54 3159.6 1324.5 3154.6 1322.54 3149.6 1318.54 3148.6 1308.54M3185.6 1308.54 3186.6 1298.54 3192.6 1293.54 3196.6 1292.5 3200.6 1293.54 3206.61 1298.54 3207.61 1308.54 3206.61 1318.54 3200.6 1322.54 3196.6 1324.5 3192.6 1322.54 3186.6 1318.54 3185.6 1308.54M3222.61 1308.54 3224.61 1298.54 3229.61 1293.54 3233.61 1292.5 3238.61 1293.54 3243.61 1298.54 3244.61 1308.54 3243.61 1318.54 3238.61 1322.54 3233.61 1324.5 3229.61 1322.54 3224.61 1318.54 3222.61 1308.54M3260.61 1308.54 3261.61 1298.54 3266.61 1293.54 3271.61 1292.5 3275.61 1293.54 3280.61 1298.54 3282.61 1308.54 3280.61 1318.54 3275.61 1322.54 3271.61 1324.5 3266.61 1322.54 3261.61 1318.54 3260.61 1308.54M3297.61 1308.54 3298.61 1298.54 3303.61 1293.54 3308.61 1292.5 3312.61 1293.54 3318.61 1298.54 3319.61 1308.54 3318.61 1318.54 3312.61 1322.54 3308.61 1324.5 3303.61 1322.54 3298.61 1318.54 3297.61 1308.54M3334.61 1308.54 3335.61 1298.54 3341.61 1293.54 3345.61 1292.5 3350.61 1293.54 3355.61 1298.54 3356.61 1308.54 3355.61 1318.54 3350.61 1322.54 3345.61 1324.5 3341.61 1322.54 3335.61 1318.54 3334.61 1308.54M3409.61 1308.54 3410.61 1298.54 3415.61 1293.54 3420.61 1292.5 3424.61 1293.54 3430.61 1298.54 3431.61 1308.54 3430.61 1318.54 3424.61 1322.54 3420.61 1324.5 3415.61 1322.54 3410.61 1318.54 3409.61 1308.54M3599.62 1308.54 3600.62 1298.54 3606.62 1293.54 3610.62 1292.5 3614.62 1293.54 3620.62 1298.54 3621.62 1308.54 3620.62 1318.54 3614.62 1322.54 3610.62 1324.5 3606.62 1322.54 3600.62 1318.54 3599.62 1308.54M3674.62 1308.54 3675.62 1298.54 3680.62 1293.54 3685.62 1292.5 3689.62 1293.54 3694.62 1298.54 3696.62 1308.54 3694.62 1318.54 3689.62 1322.54 3685.62 1324.5 3680.62 1322.54 3675.62 1318.54 3674.62 1308.54M3711.62 1308.54 3712.62 1298.54 3718.62 1293.54 3722.62 1292.5 3726.62 1293.54 3732.62 1298.54 3733.62 1308.54 3732.62 1318.54 3726.62 1322.54 3722.62 1324.5 3718.62 1322.54 3712.62 1318.54 3711.62 1308.54M3748.62 1308.54 3750.62 1298.54 3755.62 1293.54 3759.62 1292.5 3764.62 1293.54 3769.62 1298.54 3770.62 1308.54 3769.62 1318.54 3764.62 1322.54 3759.62 1324.5 3755.62 1322.54 3750.62 1318.54 3748.62 1308.54M3786.62 1308.54 3787.62 1298.54 3792.62 1293.54 3797.62 1292.5 3801.62 1293.54 3806.62 1298.54 3808.62 1308.54 3806.62 1318.54 3801.62 1322.54 3797.62 1324.5 3792.62 1322.54 3787.62 1318.54 3786.62 1308.54M3823.63 1308.54 3824.63 1298.54 3830.63 1293.54 3834.63 1292.5 3838.63 1293.54 3844.63 1298.54 3845.63 1308.54 3844.63 1318.54 3838.63 1322.54 3834.63 1324.5 3830.63 1322.54 3824.63 1318.54 3823.63 1308.54M3860.63 1308.54 3862.63 1298.54 3867.63 1293.54 3871.63 1292.5 3876.63 1293.54 3881.63 1298.54 3882.63 1308.54 3881.63 1318.54 3876.63 1322.54 3871.63 1324.5 3867.63 1322.54 3862.63 1318.54 3860.63 1308.54M3898.63 1308.54 3899.63 1298.54 3904.63 1293.54 3909.63 1292.5 3913.63 1293.54 3918.63 1298.54 3920.63 1308.54 3918.63 1318.54 3913.63 1322.54 3909.63 1324.5 3904.63 1322.54 3899.63 1318.54 3898.63 1308.54M3972.63 1308.54 3973.63 1298.54 3979.63 1293.54 3983.63 1292.5 3988.63 1293.54 3993.63 1298.54 3994.63 1308.54 3993.63 1318.54 3988.63 1322.54 3983.63 1324.5 3979.63 1322.54 3973.63 1318.54 3972.63 1308.54M4010.63 1308.54 4011.63 1298.54 4016.63 1293.54 4021.63 1292.5 4025.63 1293.54 4030.63 1298.54 4032.63 1308.54 4030.63 1318.54 4025.63 1322.54 4021.63 1324.5 4016.63 1322.54 4011.63 1318.54 4010.63 1308.54M4047.63 1308.54 4048.63 1298.54 4053.63 1293.54 4058.63 1292.5 4062.63 1293.54 4068.63 1298.54 4069.63 1308.54 4068.63 1318.54 4062.63 1322.54 4058.63 1324.5 4053.63 1322.54 4048.63 1318.54 4047.63 1308.54M4084.63 1308.54 4085.63 1298.54 4091.63 1293.54 4095.63 1292.5 4100.63 1293.54 4105.63 1298.54 4106.63 1308.54 4105.63 1318.54 4100.63 1322.54 4095.63 1324.5 4091.63 1322.54 4085.63 1318.54 4084.63 1308.54M4122.64 1308.54 4123.64 1298.54 4128.64 1293.54 4133.64 1292.5 4137.64 1293.54 4142.64 1298.54 4144.64 1308.54 4142.64 1318.54 4137.64 1322.54 4133.64 1324.5 4128.64 1322.54 4123.64 1318.54 4122.64 1308.54M4159.64 1308.54 4160.64 1298.54 4165.64 1293.54 4170.64 1292.5 4174.64 1293.54 4180.64 1298.54 4181.64 1308.54 4180.64 1318.54 4174.64 1322.54 4170.64 1324.5 4165.64 1322.54 4160.64 1318.54 4159.64 1308.54M4196.64 1308.54 4197.64 1298.54 4203.64 1293.54 4207.64 1292.5 4212.64 1293.54 4217.64 1298.54 4218.64 1308.54 4217.64 1318.54 4212.64 1322.54 4207.64 1324.5 4203.64 1322.54 4197.64 1318.54 4196.64 1308.54M4234.64 1308.54 4235.64 1298.54 4240.64 1293.54 4245.64 1292.5 4249.64 1293.54 4254.64 1298.54 4255.64 1308.54 4254.64 1318.54 4249.64 1322.54 4245.64 1324.5 4240.64 1322.54 4235.64 1318.54 4234.64 1308.54M4271.64 1308.54 4272.64 1298.54 4277.64 1293.54 4282.64 1292.5 4286.64 1293.54 4292.64 1298.54 4293.64 1308.54 4292.64 1318.54 4286.64 1322.54 4282.64 1324.5 4277.64 1322.54 4272.64 1318.54 4271.64 1308.54M4308.64 1308.54 4309.64 1298.54 4315.64 1293.54 4319.64 1292.5 4324.64 1293.54 4329.64 1298.54 4330.64 1308.54 4329.64 1318.54 4324.64 1322.54 4319.64 1324.5 4315.64 1322.54 4309.64 1318.54 4308.64 1308.54M4420.65 1308.54 4421.65 1298.54 4427.65 1293.54 4431.65 1292.5 4436.65 1293.54 4441.65 1298.54 4442.65 1308.54 4441.65 1318.54 4436.65 1322.54 4431.65 1324.5 4427.65 1322.54 4421.65 1318.54 4420.65 1308.54M4457.65 1308.54 4459.65 1298.54 4464.65 1293.54 4468.65 1292.5 4473.65 1293.54 4478.65 1298.54 4479.65 1308.54 4478.65 1318.54 4473.65 1322.54 4468.65 1324.5 4464.65 1322.54 4459.65 1318.54 4457.65 1308.54M4495.65 1308.54 4496.65 1298.54 4501.65 1293.54 4506.65 1292.5 4510.65 1293.54 4516.65 1298.54 4517.65 1308.54 4516.65 1318.54 4510.65 1322.54 4506.65 1324.5 4501.65 1322.54 4496.65 1318.54 4495.65 1308.54M4532.65 1308.54 4533.65 1298.54 4539.65 1293.54 4543.65 1292.5 4548.65 1293.54 4553.65 1298.54 4554.65 1308.54 4553.65 1318.54 4548.65 1322.54 4543.65 1324.5 4539.65 1322.54 4533.65 1318.54 4532.65 1308.54M4569.65 1308.54 4571.65 1298.54 4576.65 1293.54 4580.65 1292.5 4585.65 1293.54 4590.65 1298.54 4591.65 1308.54 4590.65 1318.54 4585.65 1322.54 4580.65 1324.5 4576.65 1322.54 4571.65 1318.54 4569.65 1308.54M4607.65 1308.54 4608.65 1298.54 4613.65 1293.54 4618.65 1292.5 4622.65 1293.54 4627.65 1298.54 4629.65 1308.54 4627.65 1318.54 4622.65 1322.54 4618.65 1324.5 4613.65 1322.54 4608.65 1318.54 4607.65 1308.54M4644.65 1308.54 4645.65 1298.54 4651.65 1293.54 4655.65 1292.5 4659.65 1293.54 4665.65 1298.54 4666.65 1308.54 4665.65 1318.54 4659.65 1322.54 4655.65 1324.5 4651.65 1322.54 4645.65 1318.54 4644.65 1308.54M4681.65 1308.54 4683.65 1298.54 4688.65 1293.54 4692.65 1292.5 4697.65 1293.54 4702.65 1298.54 4703.65 1308.54 4702.65 1318.54 4697.65 1322.54 4692.65 1324.5 4688.65 1322.54 4683.65 1318.54 4681.65 1308.54M4719.66 1308.54 4720.66 1298.54 4725.66 1293.54 4730.66 1292.5 4734.66 1293.54 4739.66 1298.54 4741.66 1308.54 4739.66 1318.54 4734.66 1322.54 4730.66 1324.5 4725.66 1322.54 4720.66 1318.54 4719.66 1308.54M4756.66 1308.54 4757.66 1298.54 4763.66 1293.54 4767.66 1292.5 4771.66 1293.54 4777.66 1298.54 4778.66 1308.54 4777.66 1318.54 4771.66 1322.54 4767.66 1324.5 4763.66 1322.54 4757.66 1318.54 4756.66 1308.54M4978.66 1308.54 4979.66 1298.54 4985.66 1293.54 4989.66 1292.5 4994.66 1293.54 4999.66 1298.54 5000.66 1308.54 4999.66 1318.54 4994.66 1322.54 4989.66 1324.5 4985.66 1322.54 4979.66 1318.54 4978.66 1308.54M5015.66 1308.54 5017.67 1298.54 5022.67 1293.54 5026.67 1292.5 5031.67 1293.54 5036.67 1298.54 5037.67 1308.54 5036.67 1318.54 5031.67 1322.54 5026.67 1324.5 5022.67 1322.54 5017.67 1318.54 5015.66 1308.54M5053.67 1308.54 5054.67 1298.54 5059.67 1293.54 5064.67 1292.5 5068.67 1293.54 5074.67 1298.54 5075.67 1308.54 5074.67 1318.54 5068.67 1322.54 5064.67 1324.5 5059.67 1322.54 5054.67 1318.54 5053.67 1308.54M5090.67 1308.54 5091.67 1298.54 5097.67 1293.54 5101.67 1292.5 5106.67 1293.54 5111.67 1298.54 5112.67 1308.54 5111.67 1318.54 5106.67 1322.54 5101.67 1324.5 5097.67 1322.54 5091.67 1318.54 5090.67 1308.54M5127.67 1308.54 5129.67 1298.54 5134.67 1293.54 5138.67 1292.5 5143.67 1293.54 5148.67 1298.54 5149.67 1308.54 5148.67 1318.54 5143.67 1322.54 5138.67 1324.5 5134.67 1322.54 5129.67 1318.54 5127.67 1308.54M5165.67 1308.54 5166.67 1298.54 5171.67 1293.54 5176.67 1292.5 5180.67 1293.54 5186.67 1298.54 5187.67 1308.54 5186.67 1318.54 5180.67 1322.54 5176.67 1324.5 5171.67 1322.54 5166.67 1318.54 5165.67 1308.54M5202.67 1308.54 5203.67 1298.54 5209.67 1293.54 5213.67 1292.5 5218.67 1293.54 5223.67 1298.54 5224.67 1308.54 5223.67 1318.54 5218.67 1322.54 5213.67 1324.5 5209.67 1322.54 5203.67 1318.54 5202.67 1308.54M5239.67 1308.54 5241.67 1298.54 5246.67 1293.54 5250.67 1292.5 5255.67 1293.54 5260.67 1298.54 5261.67 1308.54 5260.67 1318.54 5255.67 1322.54 5250.67 1324.5 5246.67 1322.54 5241.67 1318.54 5239.67 1308.54M5277.67 1308.54 5278.67 1298.54 5283.67 1293.54 5288.67 1292.5 5292.67 1293.54 5297.67 1298.54 5299.67 1308.54 5297.67 1318.54 5292.67 1322.54 5288.67 1324.5 5283.67 1322.54 5278.67 1318.54 5277.67 1308.54M5314.67 1308.54 5315.67 1298.54 5321.67 1293.54 5325.67 1292.5 5329.67 1293.54 5335.67 1298.54 5336.67 1308.54 5335.67 1318.54 5329.67 1322.54 5325.67 1324.5 5321.67 1322.54 5315.67 1318.54 5314.67 1308.54M5351.68 1308.54 5353.68 1298.54 5358.68 1293.54 5362.68 1292.5 5367.68 1293.54 5372.68 1298.54 5373.68 1308.54 5372.68 1318.54 5367.68 1322.54 5362.68 1324.5 5358.68 1322.54 5353.68 1318.54 5351.68 1308.54M5389.68 1308.54 5390.68 1298.54 5395.68 1293.54 5400.68 1292.5 5404.68 1293.54 5409.68 1298.54 5411.68 1308.54 5409.68 1318.54 5404.68 1322.54 5400.68 1324.5 5395.68 1322.54 5390.68 1318.54 5389.68 1308.54M5426.68 1308.54 5427.68 1298.54 5433.68 1293.54 5437.68 1292.5 5441.68 1293.54 5447.68 1298.54 5448.68 1308.54 5447.68 1318.54 5441.68 1322.54 5437.68 1324.5 5433.68 1322.54 5427.68 1318.54 5426.68 1308.54M5463.68 1308.54 5465.68 1298.54 5470.68 1293.54 5474.68 1292.5 5479.68 1293.54 5484.68 1298.54 5485.68 1308.54 5484.68 1318.54 5479.68 1322.54 5474.68 1324.5 5470.68 1322.54 5465.68 1318.54 5463.68 1308.54M5501.68 1308.54 5502.68 1298.54 5507.68 1293.54 5512.68 1292.5 5516.68 1293.54 5521.68 1298.54 5523.68 1308.54 5521.68 1318.54 5516.68 1322.54 5512.68 1324.5 5507.68 1322.54 5502.68 1318.54 5501.68 1308.54M5538.68 1308.54 5539.68 1298.54 5545.68 1293.54 5549.68 1292.5 5553.68 1293.54 5559.68 1298.54 5560.68 1308.54 5559.68 1318.54 5553.68 1322.54 5549.68 1324.5 5545.68 1322.54 5539.68 1318.54 5538.68 1308.54M5575.68 1308.54 5576.68 1298.54 5582.68 1293.54 5586.68 1292.5 5591.68 1293.54 5596.68 1298.54 5597.68 1308.54 5596.68 1318.54 5591.68 1322.54 5586.68 1324.5 5582.68 1322.54 5576.68 1318.54 5575.68 1308.54M5613.68 1308.54 5614.68 1298.54 5619.68 1293.54 5624.68 1292.5 5628.68 1293.54 5633.68 1298.54 5635.69 1308.54 5633.68 1318.54 5628.68 1322.54 5624.68 1324.5 5619.68 1322.54 5614.68 1318.54 5613.68 1308.54M5650.69 1308.54 5651.69 1298.54 5656.69 1293.54 5661.69 1292.5 5665.69 1293.54 5671.69 1298.54 5672.69 1308.54 5671.69 1318.54 5665.69 1322.54 5661.69 1324.5 5656.69 1322.54 5651.69 1318.54 5650.69 1308.54M5687.69 1308.54 5688.69 1298.54 5694.69 1293.54 5698.69 1292.5 5703.69 1293.54 5708.69 1298.54 5709.69 1308.54 5708.69 1318.54 5703.69 1322.54 5698.69 1324.5 5694.69 1322.54 5688.69 1318.54 5687.69 1308.54M5725.69 1308.54 5726.69 1298.54 5731.69 1293.54 5736.69 1292.5 5740.69 1293.54 5745.69 1298.54 5747.69 1308.54 5745.69 1318.54 5740.69 1322.54 5736.69 1324.5 5731.69 1322.54 5726.69 1318.54 5725.69 1308.54M5762.69 1308.54 5763.69 1298.54 5768.69 1293.54 5773.69 1292.5 5777.69 1293.54 5783.69 1298.54 5784.69 1308.54 5783.69 1318.54 5777.69 1322.54 5773.69 1324.5 5768.69 1322.54 5763.69 1318.54 5762.69 1308.54M5799.69 1308.54 5800.69 1298.54 5806.69 1293.54 5810.69 1292.5 5815.69 1293.54 5820.69 1298.54 5821.69 1308.54 5820.69 1318.54 5815.69 1322.54 5810.69 1324.5 5806.69 1322.54 5800.69 1318.54 5799.69 1308.54M5837.69 1308.54 5838.69 1298.54 5843.69 1293.54 5848.69 1292.5 5852.69 1293.54 5857.69 1298.54 5858.69 1308.54 5857.69 1318.54 5852.69 1322.54 5848.69 1324.5 5843.69 1322.54 5838.69 1318.54 5837.69 1308.54M5874.69 1308.54 5875.69 1298.54 5880.69 1293.54 5885.69 1292.5 5889.69 1293.54 5895.69 1298.54 5896.69 1308.54 5895.69 1318.54 5889.69 1322.54 5885.69 1324.5 5880.69 1322.54 5875.69 1318.54 5874.69 1308.54M5911.69 1308.54 5912.69 1298.54 5918.69 1293.54 5922.69 1292.5 5927.69 1293.54 5932.69 1298.54 5933.69 1308.54 5932.69 1318.54 5927.69 1322.54 5922.69 1324.5 5918.69 1322.54 5912.69 1318.54 5911.69 1308.54M5949.7 1308.54 5950.7 1298.54 5955.7 1293.54 5959.7 1292.5 5964.7 1293.54 5969.7 1298.54 5970.7 1308.54 5969.7 1318.54 5964.7 1322.54 5959.7 1324.5 5955.7 1322.54 5950.7 1318.54 5949.7 1308.54M5986.7 1308.54 5987.7 1298.54 5992.7 1293.54 5997.7 1292.5 6001.7 1293.54 6007.7 1298.54 6008.7 1308.54 6007.7 1318.54 6001.7 1322.54 5997.7 1324.5 5992.7 1322.54 5987.7 1318.54 5986.7 1308.54M6023.7 1308.54 6024.7 1298.54 6030.7 1293.54 6034.7 1292.5 6039.7 1293.54 6044.7 1298.54 6045.7 1308.54 6044.7 1318.54 6039.7 1322.54 6034.7 1324.5 6030.7 1322.54 6024.7 1318.54 6023.7 1308.54M6060.7 1308.54 6062.7 1298.54 6067.7 1293.54 6071.7 1292.5 6076.7 1293.54 6081.7 1298.54 6082.7 1308.54 6081.7 1318.54 6076.7 1322.54 6071.7 1324.5 6067.7 1322.54 6062.7 1318.54 6060.7 1308.54M6098.7 1308.54 6099.7 1298.54 6104.7 1293.54 6109.7 1292.5 6113.7 1293.54 6119.7 1298.54 6120.5 1308.54 6119.7 1318.54 6113.7 1322.54 6109.7 1324.5 6104.7 1322.54 6099.7 1318.54 6098.7 1308.54" stroke="#5B9BD5" stroke-width="6.875" stroke-linecap="round" stroke-linejoin="round" stroke-miterlimit="10" fill="none"/></g><rect x="1665.5" y="232.5" width="6321" height="1752" stroke="#D9D9D9" stroke-width="3.4375" stroke-linejoin="round" stroke-miterlimit="10" fill="none"/></g></svg>